# xmcd CD Database Entry
#
# Track frame offsets:
# 150
# 28228
# 53051
# 75545
# 108491
# 135722
# 158570
# 186628
# 213851
# 243433
# 266734
# 290748
#
# Disc length: 4233 seconds
#
# Revision: 2
# Processed by: cddbd v1.4b41PL2 Copyright (c) Steve Scherf et al.
# Submitted via: tcd 2.0b
#
DISCID=b010870c
DTITLE=LOVE SONGS
DYEAR=1900
DGENRE=
TTITLE0=sanson ki jaroorat(Ashiqui)
TTITLE1=dheere dheere se(Ashiqui)
TTITLE2=raja ko rani se(Akele Hum Akele Tum
TTITLE3=tu hi re(Bombay)
TTITLE4=tum  mile dil khile(Criminal)
TTITLE5=jiya jale(Dil se)
TTITLE6=Mujhe need na aaye(Dil)
TTITLE7=waada raha sanam(Khiladi)
TTITLE8=ye kaisa ladka hai(KKHH)
TTITLE9=sathiya tune(LOVE)
TTITLE10=diwana dil dhunde(Mashooq)
TTITLE11=ae mere hum safar(QSQT)
EXTD=
EXTT0=
EXTT1=
EXTT2=
EXTT3=
EXTT4=
EXTT5=
EXTT6=
EXTT7=
EXTT8=
EXTT9=
EXTT10=
EXTT11=
PLAYORDER=
